<?xml version="1.0" standalone="no"?>
<!DOCTYPE svg PUBLIC "-//W3C//DTD SVG 20010904//EN"
 "http://www.w3.org/TR/2001/REC-SVG-20010904/DTD/svg10.dtd">
<svg version="1.0" xmlns="http://www.w3.org/2000/svg"
 width="340.000000pt" height="340.000000pt" viewBox="0 0 340.000000 340.000000"
 preserveAspectRatio="xMidYMid meet">

<g transform="translate(0.000000,340.000000) scale(0.100000,-0.100000)"
fill="#000000" stroke="none">
<path d="M1575 2879 c-312 -46 -581 -221 -734 -479 -219 -369 -190 -828 74
-1157 153 -191 364 -308 642 -357 312 -55 382 -91 474 -249 47 -79 78 -104
108 -87 25 13 27 42 7 102 -24 74 -28 105 -16 150 15 56 34 76 155 161 333
234 514 557 515 915 0 264 -92 484 -284 678 -248 250 -604 372 -941 323z m425
-73 c208 -57 423 -195 548 -353 76 -94 155 -248 183 -358 26 -97 31 -308 10
-395 -69 -294 -221 -516 -470 -690 -132 -92 -147 -105 -170 -153 -25 -52 -28
-136 -6 -197 8 -24 13 -45 11 -47 -2 -3 -22 26 -44 64 -42 71 -107 140 -159
166 -54 28 -157 56 -303 82 -80 15 -179 37 -220 51 -328 110 -565 387 -625
731 -37 212 3 446 111 641 137 249 379 423 667 478 117 22 349 12 467 -20z"/>
<path d="M1570 2684 c-92 -24 -181 -73 -240 -133 -95 -96 -131 -188 -165 -421
-14 -94 -14 -115 -3 -126 10 -11 42 -11 158 -5 199 12 192 8 195 112 2 51 10
101 20 127 42 103 156 119 253 36 60 -51 85 -105 79 -167 -8 -87 -56 -129
-205 -177 -109 -35 -154 -64 -171 -112 -7 -18 -19 -47 -28 -65 -9 -19 -12 -37
-7 -45 5 -7 16 -54 24 -105 13 -75 13 -95 3 -109 -11 -15 -10 -21 4 -37 16
-17 28 -18 173 -12 88 4 169 13 187 21 41 16 50 50 35 124 -7 31 -12 76 -12
101 0 43 1 44 46 63 131 54 227 153 264 274 25 79 27 231 5 315 -45 172 -169
297 -340 342 -73 19 -202 18 -275 -1z m-134 -139 c14 -13 13 -15 -3 -15 -10 0
-29 -3 -43 -7 -25 -6 -25 -6 -6 15 23 26 32 27 52 7z m662 -130 c7 -15 8 -25
2 -25 -6 0 -10 7 -10 15 0 8 -4 15 -10 15 -5 0 -10 5 -10 10 0 19 17 10 28
-15z m-384 -30 c-4 -8 -17 -15 -30 -15 -15 0 -24 6 -24 15 0 10 10 15 30 15
22 0 28 -4 24 -15z m228 2 c-41 -6 -79 -6 -115 0 -48 10 -42 10 63 10 112 0
113 0 52 -10z m-422 -77 c0 -5 -22 -10 -49 -10 -28 0 -53 5 -56 10 -4 6 15 10
49 10 31 0 56 -4 56 -10z m330 -10 c0 -5 -2 -10 -4 -10 -3 0 -8 5 -11 10 -3 6
-1 10 4 10 6 0 11 -4 11 -10z m40 -55 c0 -8 12 -21 26 -28 21 -11 23 -15 11
-20 -11 -4 -23 5 -36 27 -23 36 -27 51 -11 41 6 -3 10 -13 10 -20z m-417 -2
c-13 -2 -33 -2 -45 0 -13 2 -3 4 22 4 25 0 35 -2 23 -4z m647 -35 c0 -17 -3
-28 -7 -25 -9 10 -10 57 -1 57 4 0 8 -14 8 -32z m-866 -20 c6 -5 2 -8 -11 -8
-24 0 -27 7 -16 37 7 17 8 17 11 -2 3 -11 9 -23 16 -27z m216 -8 c0 -5 -2 -10
-4 -10 -3 0 -8 5 -11 10 -3 6 -1 10 4 10 6 0 11 -4 11 -10z m0 -46 c0 -22 -2
-25 -15 -14 -12 10 -13 16 -4 26 16 20 19 18 19 -12z m-14 -81 c-10 -10 -19 5
-10 18 6 11 8 11 12 0 2 -7 1 -15 -2 -18z m636 -105 c-34 -48 -63 -77 -107
-104 -20 -12 -8 5 36 51 36 39 72 81 79 95 8 14 15 20 17 13 3 -7 -9 -32 -25
-55z m-407 -68 c4 -6 -6 -10 -22 -9 -25 0 -26 1 -8 9 11 5 21 9 22 9 1 1 5 -3
8 -9z m220 -79 c-16 -14 -55 -23 -55 -12 0 9 20 17 50 20 8 1 10 -2 5 -8z
m-85 -106 c0 -8 -4 -15 -10 -15 -5 0 -7 7 -4 15 4 8 8 15 10 15 2 0 4 -7 4
-15z m24 -136 c6 -30 -6 -59 -25 -59 -16 0 -23 71 -8 81 22 14 26 11 33 -22z"/>
<path d="M1651 1400 c-80 -19 -126 -84 -116 -165 21 -185 43 -228 132 -259 40
-14 46 -13 123 14 107 38 125 50 145 104 22 58 14 118 -24 177 -75 116 -152
155 -260 129z m119 -50 c11 -7 6 -10 -20 -10 -41 0 -115 -32 -147 -62 -23 -21
-23 -21 -23 -1 0 20 28 51 65 71 25 14 105 15 125 2z m-79 -177 c-8 -15 -10
-15 -11 -2 0 17 10 32 18 25 2 -3 -1 -13 -7 -23z m142 -34 c-6 -6 -7 3 -4 23
4 28 6 29 9 9 2 -13 0 -27 -5 -32z"/>
</g>
</svg>
